<?xml version="1.0" encoding="utf-8"?>
<!-- Generator: Adobe Illustrator 22.0.1, SVG Export Plug-In . SVG Version: 6.00 Build 0)  -->
<svg version="1.1" id="Capa_1" xmlns="http://www.w3.org/2000/svg" xmlns:xlink="http://www.w3.org/1999/xlink" x="0px" y="0px"
	 viewBox="0 0 50 50" style="enable-background:new 0 0 50 50;" xml:space="preserve">
<style type="text/css">
	.st0{fill:#9B9B9B;}
	.st1{filter:url(#Adobe_OpacityMaskFilter);}
	.st2{fill:#FFFFFF;}
	.st3{mask:url(#mask-2_1_);}
	.st4{filter:url(#Adobe_OpacityMaskFilter_1_);}
	.st5{mask:url(#mask-2_4_);}
	.st6{fill:#D5D5D5;}
	.st7{filter:url(#Adobe_OpacityMaskFilter_2_);}
	.st8{mask:url(#mask-2_3_);}
	.st9{fill:#00BCB4;}
</style>
<title>elementos/action boxes/Campo pequeño check</title>
<desc>Created with Sketch.</desc>
<g id="Symbols">
	<g id="elementos_x2F_action-boxes_x2F_Campo-pequeño-check">
		<g>
			<path class="st0" d="M45.5,50h-41C2,50,0,48,0,45.5v-41C0,2,2,0,4.5,0h41C48,0,50,2,50,4.5v41C50,48,48,50,45.5,50z M4.5,1
				C2.6,1,1,2.6,1,4.5v41C1,47.4,2.6,49,4.5,49h41c1.9,0,3.5-1.6,3.5-3.5v-41C49,2.6,47.4,1,45.5,1H4.5z"/>
		</g>
		<defs>
			<filter id="Adobe_OpacityMaskFilter" filterUnits="userSpaceOnUse" x="0" y="0" width="50.6" height="50.6">
				<feColorMatrix  type="matrix" values="1 0 0 0 0  0 1 0 0 0  0 0 1 0 0  0 0 0 1 0"/>
			</filter>
		</defs>
		<mask maskUnits="userSpaceOnUse" x="0" y="0" width="50.6" height="50.6" id="mask-2_1_">
			<g class="st1">
				<path id="path-1_1_" class="st2" d="M4,0h42c2.2,0,4,1.8,4,4v42c0,2.2-1.8,4-4,4H4c-2.2,0-4-1.8-4-4V4C0,1.8,1.8,0,4,0z"/>
			</g>
		</mask>
		<g id="color_x2F_affirmative-blanco" class="st3">
			<g id="Rectangle-Copy-5">
				<rect y="0" class="st2" width="50.6" height="50.6"/>
			</g>
		</g>
		<defs>
			<filter id="Adobe_OpacityMaskFilter_1_" filterUnits="userSpaceOnUse" x="0" y="0" width="50" height="50">
				<feColorMatrix  type="matrix" values="1 0 0 0 0  0 1 0 0 0  0 0 1 0 0  0 0 0 1 0"/>
			</filter>
		</defs>
		<mask maskUnits="userSpaceOnUse" x="0" y="0" width="50" height="50" id="mask-2_4_">
			<g class="st4">
				<path id="path-1_4_" class="st2" d="M4,0h42c2.2,0,4,1.8,4,4v42c0,2.2-1.8,4-4,4H4c-2.2,0-4-1.8-4-4V4C0,1.8,1.8,0,4,0z"/>
			</g>
		</mask>
		<g id="Rectangle-2" class="st5">
			<path class="st6" d="M45.5,50h-41C2,50,0,48,0,45.5v-41C0,2,2,0,4.5,0h41C48,0,50,2,50,4.5v41C50,48,48,50,45.5,50z M4.5,1
				C2.6,1,1,2.6,1,4.5v41C1,47.5,2.6,49,4.5,49h41c1.9,0,3.5-1.6,3.5-3.5v-41C49,2.6,47.4,1,45.5,1H4.5z"/>
		</g>
		<defs>
			<filter id="Adobe_OpacityMaskFilter_2_" filterUnits="userSpaceOnUse" x="9.7" y="12.1" width="32.8" height="23.2">
				<feColorMatrix  type="matrix" values="1 0 0 0 0  0 1 0 0 0  0 0 1 0 0  0 0 0 1 0"/>
			</filter>
		</defs>
		<mask maskUnits="userSpaceOnUse" x="9.7" y="12.1" width="32.8" height="23.2" id="mask-2_3_">
			<g class="st7">
				<path id="path-1_3_" class="st2" d="M4,0h42c2.2,0,4,1.8,4,4v42c0,2.2-1.8,4-4,4H4c-2.2,0-4-1.8-4-4V4C0,1.8,1.8,0,4,0z"/>
			</g>
		</mask>
		<g id="elementos_x2F_iconos_x2F_check-green" class="st8">
			<g id="check" transform="translate(0.500000, -0.500000)">
				<g transform="translate(10.200000, 13.600000)">
					<g id="Shape">
						<path class="st9" d="M9.6,22.2c-0.3,0-0.5-0.1-0.7-0.3l-9.6-9.6c-0.4-0.4-0.4-1,0-1.4s1-0.4,1.4,0l8.9,8.9L30.1-0.7
							c0.4-0.4,1-0.4,1.4,0s0.4,1,0,1.4L10.3,21.9C10.1,22.1,9.9,22.2,9.6,22.2z"/>
					</g>
				</g>
			</g>
		</g>
	</g>
</g>
</svg>
