<?xml version="1.0" encoding="UTF-8"?>
<svg width="30px" height="30px" viewBox="0 0 30 30" version="1.1" xmlns="http://www.w3.org/2000/svg" xmlns:xlink="http://www.w3.org/1999/xlink">
    <!-- Generator: Sketch 47.1 (45422) - http://www.bohemiancoding.com/sketch -->
    <title>elementos/iconos/ajustes/</title>
    <desc>Created with Sketch.</desc>
    <defs></defs>
    <g id="Symbols" stroke="none" stroke-width="1" fill="none" fill-rule="evenodd">
        <g id="elementos/iconos/ajustes" fill-rule="nonzero" fill="#0076FF">
            <path d="M24.4955556,15.6022222 C24.4955556,14.1711111 25.3644444,13.0466667 26.6933333,12.28 C26.4377778,11.4622222 26.1311111,10.7466667 25.7733333,10.0311111 C24.2911111,10.44 23.1155556,9.82666667 22.0933333,8.85555556 C21.0711111,7.88444444 20.7644444,6.65777778 21.1733333,5.17555556 C20.4577778,4.76666667 19.6911111,4.46 18.9244444,4.25555556 C18.1577778,5.58444444 16.7777778,6.45333333 15.3466667,6.45333333 C13.9155556,6.45333333 12.5355556,5.58444444 11.7688889,4.25555556 C10.9511111,4.51111111 10.2355556,4.81777778 9.52,5.17555556 C9.92888889,6.65777778 9.62222222,7.83333333 8.6,8.85555556 C7.57777778,9.87777778 6.40222222,10.44 4.92,10.0311111 C4.51111111,10.7466667 4.20444444,11.5133333 4,12.28 C5.32888889,13.0466667 6.19777778,14.1711111 6.19777778,15.6022222 C6.19777778,17.0333333 5.32888889,18.4133333 4,19.18 C4.25555556,19.9977778 4.56222222,20.7133333 4.92,21.4288889 C6.40222222,21.02 7.57777778,21.3266667 8.6,22.3488889 C9.62222222,23.3711111 9.92888889,24.5466667 9.52,26.0288889 C10.2355556,26.4377778 11.0022222,26.7444444 11.7688889,26.9488889 C12.5355556,25.62 13.9155556,24.7511111 15.3466667,24.7511111 C16.7777778,24.7511111 18.1577778,25.62 18.9244444,26.9488889 C19.7422222,26.6933333 20.4577778,26.3866667 21.1733333,26.0288889 C20.7644444,24.5466667 21.0711111,23.3711111 22.0933333,22.3488889 C23.1155556,21.3266667 24.2911111,20.7644444 25.7733333,21.1733333 C26.1822222,20.4577778 26.4888889,19.6911111 26.6933333,18.9244444 C25.3644444,18.1577778 24.4955556,17.0333333 24.4955556,15.6022222 Z M15.2955556,20.56 C12.5355556,20.56 10.3377778,18.3622222 10.3377778,15.6022222 C10.3377778,12.8422222 12.5355556,10.6444444 15.2955556,10.6444444 C18.0555556,10.6444444 20.2533333,12.8422222 20.2533333,15.6022222 C20.2533333,18.3622222 18.0555556,20.56 15.2955556,20.56 Z" id="Shape"></path>
        </g>
    </g>
</svg>