<?xml version="1.0" encoding="utf-8"?>
<!-- Generator: Adobe Illustrator 22.0.1, SVG Export Plug-In . SVG Version: 6.00 Build 0)  -->
<svg version="1.1" id="Capa_1" xmlns="http://www.w3.org/2000/svg" xmlns:xlink="http://www.w3.org/1999/xlink" x="0px" y="0px"
	 viewBox="0 0 46 46" style="enable-background:new 0 0 46 46;" xml:space="preserve">
<style type="text/css">
	.st0{fill:#FFFFFF;}
</style>
<title>Buttons/BigCircle</title>
<desc>Created with Sketch.</desc>
<g id="Buttons_x2F_BigCircle">
	<g id="Rectangle">
	</g>
	<g id="elementos_x2F_iconos_x2F_X-Copy">
		
			<g transform="translate(22.000000, 24.000000) rotate(-180.000000) translate(-22.000000, -24.000000) translate(7.000000, 9.000000)">
			<g id="Shape">
				<path class="st0" d="M5.1,15H23c0.6,0,1,0.4,1,1s-0.4,1-1,1H5.1c-0.6,0-1-0.4-1-1S4.5,15,5.1,15z"/>
			</g>
			
				<g id="chevron-down-copy" transform="translate(9.000000, 16.000000) rotate(-270.000000) translate(-9.000000, -16.000000) translate(-1.000000, 11.000000)">
				<g id="Shape_1_">
					<path class="st0" d="M-1,0c0-0.3,0.1-0.5,0.3-0.7l10-10c0.4-0.4,1-0.4,1.4,0l10,10c0.4,0.4,0.4,1,0,1.4s-1,0.4-1.4,0L10-8.6
						L0.7,0.7c-0.4,0.4-1,0.4-1.4,0C-0.9,0.5-1,0.3-1,0z"/>
				</g>
			</g>
		</g>
	</g>
</g>
</svg>
