<?xml version="1.0" encoding="utf-8"?>
<!-- Generator: Adobe Illustrator 22.0.1, SVG Export Plug-In . SVG Version: 6.00 Build 0)  -->
<svg version="1.1" id="Capa_1" xmlns="http://www.w3.org/2000/svg" xmlns:xlink="http://www.w3.org/1999/xlink" x="0px" y="0px"
	 viewBox="0 0 52 45.7" style="enable-background:new 0 0 52 45.7;" xml:space="preserve">
<style type="text/css">
	.st0{fill:#FFFFFF;}
	.st1{opacity:0.16;fill-rule:evenodd;clip-rule:evenodd;fill:#8FAFAE;}
	.st2{clip-path:url(#SVGID_2_);fill-rule:evenodd;clip-rule:evenodd;fill:#DCEFF3;}
	.st3{clip-path:url(#SVGID_2_);fill-rule:evenodd;clip-rule:evenodd;fill:#F3FAFB;}
	.st4{clip-path:url(#SVGID_2_);fill:#C2E4E9;}
	.st5{clip-path:url(#SVGID_2_);fill:#47A19D;}
	.st6{clip-path:url(#SVGID_2_);}
	.st7{clip-path:url(#SVGID_4_);}
	.st8{clip-path:url(#SVGID_8_);}
	.st9{clip-path:url(#SVGID_2_);fill:#6FC2B3;}
	.st10{clip-path:url(#SVGID_2_);fill-rule:evenodd;clip-rule:evenodd;fill:none;}
	.st11{clip-path:url(#SVGID_2_);fill:#2BB5B0;}
	.st12{clip-path:url(#SVGID_2_);fill:#14615E;}
	.st13{fill:#2BB5B0;}
	.st14{fill:#706F6F;}
</style>
<path class="st14" d="M49.7,38.4c-0.2-5.5-0.8-11.5-2.4-16.9C46.3,11.3,37.7,3.3,27.2,3.3C18.4,3.3,10.9,9,8.1,16.9
	c-0.3,0.5-0.5,1.1-0.8,1.6c-1.4,3.4-2.3,7-2.7,10.6c-0.3,3-1,8.5,0.5,11.3c0.2,0.3,0.3,0.5,0.5,0.7c0.8,0.7,1.9,0.3,3.4,0.3
	c2.2-0.1,4.3-0.1,6.5-0.1c0.6,0,1.2,0,1.8,0c2.9,1.6,6.3,2.5,9.8,2.5c3.3,0,6.4-0.8,9.1-2.2c2.8-0.1,5.7-0.2,8.5-0.2
	c0.9,0,3.3,0.6,4.1,0.2C50.2,41.1,49.8,40,49.7,38.4z M27.2,40.8c-9,0-16.3-6.9-17.2-15.6C15.4,27.9,29.3,12.5,30.7,8
	c1.8,5.2,7,9,12.5,9.3c0.8,2,1.2,4.1,1.2,6.3C44.4,33.1,36.7,40.8,27.2,40.8z"/>
</svg>
