<?xml version="1.0" encoding="UTF-8"?>
<svg width="30px" height="30px" viewBox="0 0 30 30" version="1.1" xmlns="http://www.w3.org/2000/svg" xmlns:xlink="http://www.w3.org/1999/xlink">
    <!-- Generator: Sketch 47.1 (45422) - http://www.bohemiancoding.com/sketch -->
    <title>elementos/iconos/home/</title>
    <desc>Created with Sketch.</desc>
    <defs></defs>
    <g id="Symbols" stroke="none" stroke-width="1" fill="none" fill-rule="evenodd">
        <g id="elementos/iconos/home" fill="#0076FF">
            <g id="AllIcons-05" transform="translate(2.000000, 3.000000)">
                <path d="M26.745283,12.95 C26.745283,13.6 26.1849057,14.15 25.5226415,14.15 C25.2169811,14.15 24.9113208,14 24.6566038,13.8 L24.6566038,13.8 L13.5,2.95 L13.5,2.95 L13.4490566,2.9 L13.4490566,2.9 L2.34339623,13.85 L2.34339623,13.85 C2.13962264,14.05 1.83396226,14.2 1.47735849,14.2 C0.81509434,14.2 0.254716981,13.65 0.254716981,13 C0.254716981,12.65 0.40754717,12.35 0.611320755,12.1 L12.5830189,0.35 C12.7867925,0.1 13.1433962,0 13.5,0 L13.5,0 L13.5,0 L13.5,0 C13.5,0 13.5509434,0 13.5509434,0 C13.5509434,0 13.5509434,0 13.5509434,0 C13.5509434,0 13.6018868,0 13.6018868,0 C13.6018868,0 13.6018868,0 13.6018868,0 C13.9075472,0.05 14.1622642,0.15 14.3660377,0.4 L14.3660377,0.4 L19.2566038,5.2 L19.2566038,4.1 C19.2566038,3.45 19.8169811,2.9 20.4792453,2.9 C21.1415094,2.9 21.7018868,3.45 21.7018868,4.1 L21.7018868,7.65 L26.3377358,12.2 L26.3377358,12.2 C26.5924528,12.35 26.745283,12.65 26.745283,12.95 Z M24.2490566,15 L24.2490566,18.65 L24.2490566,20.3 L24.2490566,23.55 C24.2490566,24.2 23.6886792,24.75 23.0264151,24.75 L20.5301887,24.75 L20.5301887,15 L15.5886792,15 L15.5886792,24.75 L3.97358491,24.75 C3.31132075,24.75 2.7509434,24.2 2.7509434,23.55 L2.7509434,20.3 L2.7509434,18.65 L2.7509434,15 L13.5,4.45 L24.2490566,15 Z M11.4113208,15 L6.46981132,15 L6.46981132,19.85 L11.4113208,19.85 L11.4113208,15 Z" id="HOME_2_"></path>
            </g>
        </g>
    </g>
</svg>