<?xml version="1.0" encoding="UTF-8"?>
<svg width="40px" height="40px" viewBox="0 0 40 40" version="1.1" xmlns="http://www.w3.org/2000/svg" xmlns:xlink="http://www.w3.org/1999/xlink">
    <!-- Generator: sketchtool 47.1 (45422) - http://www.bohemiancoding.com/sketch -->
    <title>8092A06A-C73F-4015-A7BA-3F849A47C6C2</title>
    <desc>Created with sketchtool.</desc>
    <defs>
        <rect id="path-1" x="4.99471182" y="4.99471182" width="23.845721" height="23.845721" rx="4"></rect>
        <filter x="-14.4%" y="-125.9%" width="128.8%" height="351.8%" filterUnits="objectBoundingBox" id="filter-3">
            <feGaussianBlur stdDeviation="0.717075893" in="SourceGraphic"></feGaussianBlur>
        </filter>
    </defs>
    <g id="Symbols" stroke="none" stroke-width="1" fill="none" fill-rule="evenodd">
        <g id="elementos/iconos/iconosAccion/Icono-Ajustes">
            <g id="Group" transform="translate(3.000000, 2.000000)">
                <g id="Icono-Jugar">
                    <mask id="mask-2" fill="white">
                        <use xlink:href="#path-1"></use>
                    </mask>
                    <rect x="4.99471182" y="4.99471182" width="23.845721" height="23.845721" rx="4"></rect>
                    <g id="color/affirmative-blanco" mask="url(#mask-2)" fill="#FFFFFF">
                        <g transform="translate(-0.427210, -0.213605)" id="Rectangle-Copy-5">
                            <rect x="0" y="0" width="35.4375" height="36.45"></rect>
                        </g>
                    </g>
                    <ellipse id="Oval" fill="#D9FDFC" mask="url(#mask-2)" cx="16.3987651" cy="31.6135428" rx="26.0109909" ry="11.107461"></ellipse>
                    <ellipse id="Oval-2" fill-opacity="0.173913043" fill="#8AACAA" filter="url(#filter-3)" mask="url(#mask-2)" cx="17.0884015" cy="34.8176181" rx="7.47617567" ry="1"></ellipse>
                    <rect id="Rectangle-2" stroke="#50E3C2" stroke-width="2" mask="url(#mask-2)" transform="translate(16.917572, 17.131177) rotate(46.000000) translate(-16.917572, -17.131177) " x="5.99471182" y="6.20831684" width="21.845721" height="21.845721" rx="4"></rect>
                    <rect id="Rectangle-2" stroke="#00BCB4" mask="url(#mask-2)" transform="translate(16.917572, 16.917572) rotate(46.000000) translate(-16.917572, -16.917572) " x="5.49471182" y="5.49471182" width="22.845721" height="22.845721" rx="4"></rect>
                </g>
                <ellipse id="Oval-2" fill-opacity="0.160000011" fill="#8EAFAE" cx="16.941389" cy="34.7500333" rx="5.19311292" ry="1"></ellipse>
            </g>
            <g id="elementos/iconos/ajustes-green" transform="translate(12.000000, 10.904762)" fill-rule="nonzero" fill="#00BCB4">
                <path d="M13.0642963,8.32118519 C13.0642963,7.55792593 13.5277037,6.95822222 14.2364444,6.54933333 C14.1001481,6.11318519 13.9365926,5.73155556 13.7457778,5.34992593 C12.9552593,5.568 12.3282963,5.24088889 11.7831111,4.72296296 C11.2379259,4.20503704 11.0743704,3.55081481 11.2924444,2.7602963 C10.9108148,2.54222222 10.5019259,2.37866667 10.093037,2.26962963 C9.68414815,2.97837037 8.94814815,3.44177778 8.18488889,3.44177778 C7.42162963,3.44177778 6.68562963,2.97837037 6.27674074,2.26962963 C5.84059259,2.40592593 5.45896296,2.56948148 5.07733333,2.7602963 C5.29540741,3.55081481 5.13185185,4.17777778 4.58666667,4.72296296 C4.04148148,5.26814815 3.41451852,5.568 2.624,5.34992593 C2.40592593,5.73155556 2.24237037,6.14044444 2.13333333,6.54933333 C2.84207407,6.95822222 3.30548148,7.55792593 3.30548148,8.32118519 C3.30548148,9.08444444 2.84207407,9.82044444 2.13333333,10.2293333 C2.26962963,10.6654815 2.43318519,11.0471111 2.624,11.4287407 C3.41451852,11.2106667 4.04148148,11.3742222 4.58666667,11.9194074 C5.13185185,12.4645926 5.29540741,13.0915556 5.07733333,13.8820741 C5.45896296,14.1001481 5.86785185,14.2637037 6.27674074,14.3727407 C6.68562963,13.664 7.42162963,13.2005926 8.18488889,13.2005926 C8.94814815,13.2005926 9.68414815,13.664 10.093037,14.3727407 C10.5291852,14.2364444 10.9108148,14.0728889 11.2924444,13.8820741 C11.0743704,13.0915556 11.2379259,12.4645926 11.7831111,11.9194074 C12.3282963,11.3742222 12.9552593,11.0743704 13.7457778,11.2924444 C13.9638519,10.9108148 14.1274074,10.5019259 14.2364444,10.093037 C13.5277037,9.68414815 13.0642963,9.08444444 13.0642963,8.32118519 Z M8.15762963,10.9653333 C6.68562963,10.9653333 5.51348148,9.79318519 5.51348148,8.32118519 C5.51348148,6.84918519 6.68562963,5.67703704 8.15762963,5.67703704 C9.62962963,5.67703704 10.8017778,6.84918519 10.8017778,8.32118519 C10.8017778,9.79318519 9.62962963,10.9653333 8.15762963,10.9653333 Z" id="Shape"></path>
            </g>
        </g>
    </g>
</svg>