<?xml version="1.0" encoding="utf-8"?>
<!-- Generator: Adobe Illustrator 22.0.1, SVG Export Plug-In . SVG Version: 6.00 Build 0)  -->
<svg version="1.1" id="Capa_1" xmlns="http://www.w3.org/2000/svg" xmlns:xlink="http://www.w3.org/1999/xlink" x="0px" y="0px"
	 viewBox="0 0 19 16" style="enable-background:new 0 0 19 16;" xml:space="preserve">
<style type="text/css">
	.st0{fill:#00BCB4;}
</style>
<title>elementos/iconos/ajustes</title>
<desc>Created with Sketch.</desc>
<g id="Dashboard" transform="translate(-134.000000, -383.000000)">
	<g id="elementos_x2F_iconos_x2F_ajustes" transform="translate(134.000000, 383.000000)">
		<g id="AllIcons-07">
			<path id="Shape" class="st0" d="M0.9,9.1l1.2,0.3L3,8L1.3,7.5c-0.4-0.1-0.9,0.2-1,0.6C0.2,8.5,0.5,9,0.9,9.1z M16.9,9.3l-4,3.7
				L8.1,9.3C8,9.2,7.9,9.2,7.8,9.2L7.2,9l-0.9,1.5l1,0.2l5.1,4c0.1,0.1,0.3,0.2,0.5,0.2c0.2,0,0.4-0.1,0.5-0.2l4.5-4.1
				c0.3-0.3,0.4-0.8,0.1-1.2C17.7,9.1,17.2,9.1,16.9,9.3z M8.1,5.3l4.4,2.9c0.4,0.2,0.9,0.1,1.1-0.2l4.5-6.7
				c0.2-0.3,0.2-0.9-0.2-1.1C17.5-0.1,17,0,16.8,0.4l-4.1,6L8.3,3.4C8.1,3.3,7.9,3.3,7.7,3.3c-0.2,0-0.4,0.2-0.5,0.4L0.4,14.5
				c-0.2,0.4-0.1,0.9,0.2,1.1c0.1,0.1,0.3,0.1,0.4,0.1c0.3,0,0.5-0.1,0.7-0.4L8.1,5.3z"/>
		</g>
	</g>
</g>
</svg>
