<?xml version="1.0" encoding="UTF-8"?>
<svg width="40px" height="40px" viewBox="0 0 40 40" version="1.1" xmlns="http://www.w3.org/2000/svg" xmlns:xlink="http://www.w3.org/1999/xlink">
    <!-- Generator: sketchtool 47.1 (45422) - http://www.bohemiancoding.com/sketch -->
    <title>46D9BB88-5CA8-46FD-9D5B-6F651F921234</title>
    <desc>Created with sketchtool.</desc>
    <defs>
        <rect id="path-1" x="5.00012401" y="5.00012401" width="23.8715598" height="23.8715598" rx="4"></rect>
        <filter x="-14.4%" y="-125.8%" width="128.7%" height="351.5%" filterUnits="objectBoundingBox" id="filter-3">
            <feGaussianBlur stdDeviation="0.717075893" in="SourceGraphic"></feGaussianBlur>
        </filter>
        <path d="M6.55711592,18.565841 C6.82328588,19.8235099 7.93979124,20.7672956 9.27672956,20.7672956 L18.2578616,20.7672956 C19.7931438,20.7672956 21.0377358,19.5227035 21.0377358,17.9874214 L21.0377358,17.9874214 C21.0377358,16.5235972 19.9063038,15.3240331 18.4702501,15.2155396 C18.4179341,13.4307709 16.9546706,12 15.1572327,12 C13.6799314,12 12.4283676,12.9664968 12.0003602,14.3016715 C11.6495323,13.6928557 10.9921243,13.2830189 10.2389937,13.2830189 C9.11705677,13.2830189 8.20754717,14.1925285 8.20754717,15.3144654 C8.20754717,15.3496893 8.20844366,15.3847037 8.21021506,15.4194872 C7.66799978,15.6449361 7.21254006,16.037112 6.90783054,16.5320202 C6.70699839,16.3722145 6.45270036,16.2767296 6.17610063,16.2767296 C5.52655819,16.2767296 5,16.8032877 5,17.4528302 C5,18.1023726 5.52655819,18.6289308 6.17610063,18.6289308 C6.30945351,18.6289308 6.43762269,18.6067368 6.55711592,18.565841 Z" id="path-4"></path>
    </defs>
    <g id="Symbols" stroke="none" stroke-width="1" fill="none" fill-rule="evenodd">
        <g id="elementos/iconos/iconosAccion/IconoWeatherSmall">
            <g id="Group-Copy" transform="translate(4.000000, 2.000000)">
                <g id="Icono-Jugar">
                    <mask id="mask-2" fill="white">
                        <use xlink:href="#path-1"></use>
                    </mask>
                    <rect stroke="#00BCB4" stroke-width="5" x="7.50012401" y="7.50012401" width="18.8715598" height="18.8715598" rx="4"></rect>
                    <g id="color/affirmative-blanco" mask="url(#mask-2)" fill="#FFFFFF">
                        <g transform="translate(-0.427673, -0.213836)" id="Rectangle-Copy-5">
                            <rect x="0" y="0" width="35.4375" height="36.45"></rect>
                        </g>
                    </g>
                    <ellipse id="Oval" fill="#D9FDFC" mask="url(#mask-2)" cx="16.4842767" cy="41.9937107" rx="24.4842767" ry="19.9937107"></ellipse>
                    <ellipse id="Oval-2" fill-opacity="0.173913043" fill="#8AACAA" filter="url(#filter-3)" mask="url(#mask-2)" cx="17.1069182" cy="34.8553459" rx="7.48427673" ry="1"></ellipse>
                    <g id="Group-4" mask="url(#mask-2)" fill="#FDE48A">
                        <g transform="translate(10.000000, 4.000000)">
                            <ellipse id="Oval-12" cx="8.98113208" cy="9.51572327" rx="3.20754717" ry="3.31446541"></ellipse>
                            <path d="M9.08805031,0 C9.18880528,-1.85083867e-17 9.27048332,0.0816780369 9.27048332,0.182433001 L9.27048332,4.30675992 L9.27048332,4.30675992 C9.27048332,4.40751489 9.18880528,4.48919292 9.08805031,4.48919292 L9.08805031,4.48919292 C8.98729535,4.48919292 8.90561731,4.40751489 8.90561731,4.30675992 L8.90561731,0.182433001 L8.90561731,0.182433001 C8.90561731,0.0816780369 8.98729535,1.85083867e-17 9.08805031,0 Z M16.2346112,3.49941549 C16.2980184,3.57771681 16.2859443,3.69259422 16.207643,3.75600137 L13.002439,6.3515244 C12.9241377,6.41493156 12.8092602,6.40285745 12.7458531,6.32455614 C12.6824459,6.24625483 12.69452,6.13137742 12.7728213,6.06797026 L15.9780254,3.47244723 C16.0563267,3.40904008 16.1712041,3.42111418 16.2346112,3.49941549 Z M18.0115285,11.4104796 C17.9888636,11.5086523 17.8909054,11.5698633 17.7927327,11.5471984 L13.7741121,10.6194267 C13.6759394,10.5967618 13.6147284,10.4988036 13.6373933,10.4006309 C13.6600582,10.3024583 13.7580164,10.2412473 13.856189,10.2639122 L17.8748097,11.1916839 C17.9729824,11.2143488 18.0341934,11.312307 18.0115285,11.4104796 Z M13.0700014,17.7294548 C12.9794434,17.7736228 12.8702264,17.7360164 12.8260583,17.6454584 L11.0180724,13.9385379 L11.0180724,13.9385379 C10.9739043,13.84798 11.0115108,13.738763 11.1020687,13.6945949 L11.1020687,13.6945949 C11.1926267,13.6504268 11.3018437,13.6880333 11.3460118,13.7785912 L13.1539977,17.4855117 C13.1981658,17.5760697 13.1605593,17.6852867 13.0700014,17.7294548 Z M5.10609924,17.7294548 C5.01554128,17.6852867 4.97793484,17.5760697 5.02210291,17.4855117 L6.83008883,13.7785912 C6.8742569,13.6880333 6.98347393,13.6504268 7.07403189,13.6945949 C7.16458985,13.738763 7.20219629,13.84798 7.15802822,13.9385379 L5.3500423,17.6454584 C5.30587423,17.7360164 5.1966572,17.7736228 5.10609924,17.7294548 Z M0.164572135,11.4104796 L0.164572135,11.4104796 C0.1419072,11.312307 0.203118273,11.2143488 0.301290894,11.1916839 L4.31991158,10.2639122 C4.41808421,10.2412473 4.5160424,10.3024583 4.53870734,10.4006309 C4.56137227,10.4988036 4.5001612,10.5967618 4.40198858,10.6194267 L0.383367886,11.5471984 C0.285195265,11.5698633 0.187237071,11.5086523 0.164572135,11.4104796 L0.164572135,11.4104796 Z M1.94148939,3.49941549 C2.00489655,3.42111418 2.11977396,3.40904008 2.19807527,3.47244723 L5.40327928,6.06797026 C5.48158059,6.13137742 5.4936547,6.24625483 5.43024754,6.32455614 C5.36684039,6.40285745 5.25196298,6.41493156 5.17366166,6.3515244 L1.96845765,3.75600137 C1.89015634,3.69259422 1.87808224,3.57771681 1.94148939,3.49941549 Z" id="Rectangle-13"></path>
                        </g>
                    </g>
                    <g id="Combined-Shape" mask="url(#mask-2)">
                        <use fill="#FFFFFF" fill-rule="evenodd" xlink:href="#path-4"></use>
                        <path stroke="#00BCB4" stroke-width="0.5" d="M6.47616472,18.32931 L6.74324921,18.2379021 L6.80169843,18.5140782 C7.04716317,19.6739137 8.0758011,20.5172956 9.27672956,20.5172956 L18.2578616,20.5172956 C19.6550726,20.5172956 20.7877358,19.3846323 20.7877358,17.9874214 C20.7877358,16.6622163 19.7649424,15.5640657 18.4514163,15.4648291 L18.2269529,15.447871 L18.2203574,15.2228645 C18.17189,13.5693915 16.8155915,12.25 15.1572327,12.25 C13.8154552,12.25 12.6416226,13.1202138 12.2384273,14.377987 L12.0659128,14.9161482 L11.7837503,14.4264921 C11.467685,13.8780019 10.883546,13.5330189 10.2389937,13.5330189 C9.25512795,13.5330189 8.45754717,14.3305997 8.45754717,15.3144654 C8.45794141,15.360834 8.45794141,15.360834 8.4598915,15.4067721 L8.46885078,15.5826978 L8.30619688,15.6503281 C7.81519584,15.8544825 7.39946754,16.2103445 7.12071619,16.6630915 L6.97285392,16.9032489 L6.75216814,16.7276453 C6.58948905,16.5981987 6.3885896,16.5267296 6.17610063,16.5267296 C5.66462937,16.5267296 5.25,16.9413589 5.25,17.4528302 C5.25,17.9643014 5.66462937,18.3789308 6.17610063,18.3789308 C6.27965077,18.3789308 6.38056401,18.3620288 6.47616472,18.32931 Z"></path>
                    </g>
                    <rect id="Rectangle-2" stroke="#50E3C2" stroke-width="2" mask="url(#mask-2)" transform="translate(16.935904, 16.935904) rotate(46.000000) translate(-16.935904, -16.935904) " x="6.00012401" y="6.00012401" width="21.8715598" height="21.8715598" rx="4"></rect>
                    <rect id="Rectangle-2" stroke="#00BCB4" mask="url(#mask-2)" transform="translate(16.935904, 16.935904) rotate(46.000000) translate(-16.935904, -16.935904) " x="5.50012401" y="5.50012401" width="22.8715598" height="22.8715598" rx="4"></rect>
                </g>
                <ellipse id="Oval-2" fill-opacity="0.160000011" fill="#8EAFAE" cx="17.5" cy="35" rx="5.5" ry="1"></ellipse>
            </g>
        </g>
    </g>
</svg>