<svg xmlns="http://www.w3.org/2000/svg" xmlns:xlink="http://www.w3.org/1999/xlink" viewBox="0 0 145.82 161.9"><defs><style>.cls-1,.cls-17{fill:none;}.cls-12,.cls-2{fill:#9c9b9b;}.cls-2,.cls-3{clip-rule:evenodd;}.cls-14,.cls-3{fill:#cbdada;mix-blend-mode:multiply;}.cls-4{isolation:isolate;}.cls-5{fill:#fff;}.cls-6{fill:#8fafae;opacity:0.16;}.cls-7{clip-path:url(#clip-path);}.cls-8{fill:#dceff3;}.cls-12,.cls-14,.cls-17,.cls-8{fill-rule:evenodd;}.cls-9{fill:#f3fafb;}.cls-10{fill:#c2e4e9;}.cls-11{fill:#47a19d;}.cls-13{clip-path:url(#clip-path-2);}.cls-15{clip-path:url(#clip-path-3);}.cls-16{fill:#6fc2b3;}.cls-18{fill:#2bb5b0;}.cls-19{fill:#14615e;}</style><clipPath id="clip-path"><rect class="cls-1" x="17.95" y="18.24" width="111.63" height="111.63" rx="18" ry="18" transform="translate(-30.74 72.03) rotate(-44)"/></clipPath><clipPath id="clip-path-2"><path class="cls-2" d="M85.57,8.89l2,0V58.51h-1a9.18,9.18,0,0,1-1,0Z"/></clipPath><clipPath id="clip-path-3"><path class="cls-3" d="M-80.89,15.44l5.91.85L82.09,53.78a3.54,3.54,0,0,0-.8.54,2.16,2.16,0,0,0-.67,1Z"/></clipPath></defs><title>IconosGolfin</title><g class="cls-4"><g id="Capa_1" data-name="Capa 1"><rect class="cls-5" x="17.95" y="18.24" width="111.63" height="111.63" rx="18" ry="18" transform="translate(-30.74 72.03) rotate(-44)"/><ellipse class="cls-6" cx="73.88" cy="157.54" rx="24.31" ry="3.68"/><g class="cls-7"><path class="cls-8" d="M13.61,50.62A65.05,65.05,0,0,0,5.48,61.68a25.53,25.53,0,0,0-2.83,6.39A15,15,0,0,0,2.73,75C3.79,79.58,6.36,83.76,9,87.65c2.84,4.19,5.78,8.33,8.94,12.29a222.67,222.67,0,0,0,21.93,23.21c1.72,1.62,3.47,3.22,5.1,4.94s3.11,3.35,4.7,5c3.14,3.28,6.59,6.55,10.87,8.27a34.46,34.46,0,0,0,6.7,1.77c2.21.4,4.69.82,6.88.12s3.56-2.26,5-3.77c1.84-1.94,3.76-3.79,5.69-5.64,8-7.65,16.2-15,24.76-22,7.76-6.31,16.17-11.91,22.81-19.47a62.2,62.2,0,0,0,7.8-11.11,67.12,67.12,0,0,0,3.12-6.52c.38-.92.78-1.81,1.22-2.69a4.68,4.68,0,0,0,.65-1.83,3.8,3.8,0,0,0-.7-2c-.62-1.06-1.33-2.08-2-3.09-1.55-2.27-3.16-4.5-4.81-6.7q-2.77-3.71-5.74-7.28c-19.72-5.87-43.68-9.31-69.54-9.31a271.49,271.49,0,0,0-43.77,3.46C16.88,47.06,15.21,48.81,13.61,50.62Z"/><ellipse class="cls-9" cx="81.03" cy="61.57" rx="34.46" ry="14.72"/><path class="cls-10" d="M93.79,55.68c0-1.56-3-2.82-6.61-2.82s-6.61,1.26-6.61,2.82,3,2.83,6.61,2.83S93.79,57.24,93.79,55.68Z"/><path class="cls-11" d="M92.21,55.68c0-1.56-2.61-2.82-5.82-2.82s-5.82,1.26-5.82,2.82,2.61,2.83,5.82,2.83S92.21,57.24,92.21,55.68Z"/><path class="cls-12" d="M85.57,8.89l2,0V58.51h-1a9.18,9.18,0,0,1-1,0Z"/><path class="cls-14" d="M-80.89,15.44l5.91.85L82.09,53.78a3.54,3.54,0,0,0-.8.54,2.16,2.16,0,0,0-.67,1Z"/><path class="cls-16" d="M74.7,2.58v8a9.93,9.93,0,0,1,7.2,3.06l52.54,54.41a10,10,0,0,1-.25,14.13L79.78,134.73a10,10,0,0,1-14.14-.25L13.1,80.07a10,10,0,0,1,.25-14.14L67.76,13.39a9.94,9.94,0,0,1,6.94-2.81v-8m0,0A17.91,17.91,0,0,0,62.2,7.64L7.79,60.18a18,18,0,0,0-.44,25.45L59.89,140a18,18,0,0,0,25.45.44l54.41-52.54a18,18,0,0,0,.44-25.45L87.65,8.08a17.94,17.94,0,0,0-13-5.5Z"/><path class="cls-17" d="M60.79,109.19c-6.11,1.07-11.84-2.3-12.76-7.53C47.24,97.2,50.2,92.81,54.88,91l-40-65.87a1.58,1.58,0,0,1,.82-2.22,2,2,0,0,1,2.53.6L59,90.53a1.5,1.5,0,0,1,.62,1A1.77,1.77,0,0,1,58,93.4c-4.07.71-6.88,4.13-6.27,7.6s4.42,5.73,8.49,5l37.19-6.56c4.06-.71,6.87-4.13,6.26-7.61s-4.42-5.72-8.49-5L70.1,91.26a1.63,1.63,0,1,1-.57-3.17l25.1-4.43c6.12-1.08,11.84,2.3,12.76,7.53s-3.3,10.36-9.41,11.44Z"/><path class="cls-18" d="M107.89,91.1a9.45,9.45,0,0,0-4.67-6.47A12.42,12.42,0,0,0,96.61,83,13.5,13.5,0,0,0,97,76.58c-1.2-6.78-7.17-11.42-13.34-10.33s-10.21,7.49-9,14.27a13.37,13.37,0,0,0,2.47,5.72l-7.7,1.35a2.13,2.13,0,1,0,.73,4.17l25.1-4.43a7.64,7.64,0,0,1,5.2.87,5.27,5.27,0,0,1,1.44,8.17A7.68,7.68,0,0,1,97.33,99l-37.19,6.56c-3.79.66-7.34-1.4-7.9-4.6s2.06-6.36,5.85-7a2.26,2.26,0,0,0,2-2.5,2,2,0,0,0-.74-1.21l-40.66-67a2.48,2.48,0,0,0-3.17-.78,2.33,2.33,0,0,0-1.23,1.39,1.91,1.91,0,0,0,.2,1.53L54.15,90.71c-4.7,2.11-7.4,6.58-6.61,11,.85,4.82,5.54,8.15,11,8.15a13.7,13.7,0,0,0,2.36-.21l37.19-6.56a12.68,12.68,0,0,0,7.64-4.34A9.39,9.39,0,0,0,107.89,91.1Zm-16.41-9c-2.44.46-4.92.84-7.36,1.11-.88.1-1.78.19-2.69.26a7.89,7.89,0,0,1-1.88-3.89,7.58,7.58,0,0,1,1-5.38,6,6,0,0,1,4-2.81,5.52,5.52,0,0,1,1-.09,6.13,6.13,0,0,1,3.77,1.35,7.61,7.61,0,0,1,2.77,4.71A7.72,7.72,0,0,1,91.48,82.14Z"/><path class="cls-19" d="M80.57,55.83a2.51,2.51,0,0,0,1.52,1.76V53.77C81,54.4,80.49,55.09,80.57,55.83Z"/></g><path class="cls-18" d="M74.7,2.58v5a12.92,12.92,0,0,1,9.36,4L136.6,66a13,13,0,0,1-.32,18.38L81.87,136.88a13,13,0,0,1-18.38-.32L11,82.16a13,13,0,0,1,.32-18.39l54.4-52.54a13,13,0,0,1,9-3.65v-5m0,0A17.91,17.91,0,0,0,62.2,7.64L7.79,60.18a18,18,0,0,0-.44,25.45L59.89,140a18,18,0,0,0,25.45.44l54.41-52.54a18,18,0,0,0,.44-25.45L87.65,8.08a17.94,17.94,0,0,0-13-5.5Z"/></g></g></svg>