<?xml version="1.0" encoding="UTF-8"?>
<svg width="14px" height="15px" viewBox="0 0 14 15" version="1.1" xmlns="http://www.w3.org/2000/svg" xmlns:xlink="http://www.w3.org/1999/xlink">
    <!-- Generator: Sketch 48.2 (47327) - http://www.bohemiancoding.com/sketch -->
    <title>Page 1</title>
    <desc>Created with Sketch.</desc>
    <defs>
        <polygon id="path-1" points="0 0 14 0 14 15 0 15"></polygon>
    </defs>
    <g id="Dashboard" stroke="none" stroke-width="1" fill="none" fill-rule="evenodd" transform="translate(-301.000000, -60.000000)">
        <g id="Page-1" transform="translate(301.000000, 60.000000)">
            <mask id="mask-2" fill="white">
                <use xlink:href="#path-1"></use>
            </mask>
            <g id="Clip-2"></g>
            <path d="M8.16678006,6.92338746 C8.16678006,7.55449897 7.63747692,8.07661254 7.00068034,8.07661254 C6.36252308,8.07661254 5.83321994,7.55449897 5.83321994,6.92338746 L5.83321994,1.15457074 C5.83321994,0.523459227 6.36252308,0 7.00068034,0 C7.63747692,0 8.16678006,0.523459227 8.16678006,1.15457074 L8.16678006,6.92338746 Z M7.00068034,15 C3.14452328,15 0,11.8901947 0,8.07661254 C0,5.88723423 1.02050734,3.86740827 2.79891146,2.55135911 C3.31868986,2.16381089 4.04801244,2.26338925 4.43036252,2.7774289 C4.82223734,3.28204898 4.71202255,4.0113932 4.20176888,4.3908675 C3.01661969,5.27361622 2.33356011,6.61657845 2.33356011,8.07661254 C2.33356011,10.6185521 4.43036252,12.6922042 7.00068034,12.6922042 C9.56963748,12.6922042 11.6664399,10.6185521 11.6664399,8.07661254 C11.6664399,6.61657845 10.9833803,5.27361622 9.79823112,4.3908675 C9.28797745,4.0113932 9.17776266,3.28204898 9.56963748,2.7774289 C9.95198756,2.26338925 10.6908349,2.16381089 11.2010885,2.55135911 C12.9794927,3.86740827 14,5.88723423 14,8.07661254 C14,11.8901947 10.8568374,15 7.00068034,15 Z" id="Fill-1" fill="#00BAB4" mask="url(#mask-2)"></path>
        </g>
    </g>
</svg>