<?xml version="1.0" encoding="utf-8"?>
<!-- Generator: Adobe Illustrator 22.0.1, SVG Export Plug-In . SVG Version: 6.00 Build 0)  -->
<svg version="1.1" id="Capa_1" xmlns="http://www.w3.org/2000/svg" xmlns:xlink="http://www.w3.org/1999/xlink" x="0px" y="0px"
	 viewBox="0 0 44.7 43.7" style="enable-background:new 0 0 44.7 43.7;" xml:space="preserve">
<style type="text/css">
	.st0{fill:#FFFFFF;}
	.st1{opacity:0.16;fill-rule:evenodd;clip-rule:evenodd;fill:#8FAFAE;}
	.st2{clip-path:url(#SVGID_2_);fill-rule:evenodd;clip-rule:evenodd;fill:#DCEFF3;}
	.st3{clip-path:url(#SVGID_2_);fill-rule:evenodd;clip-rule:evenodd;fill:#F3FAFB;}
	.st4{clip-path:url(#SVGID_2_);fill:#C2E4E9;}
	.st5{clip-path:url(#SVGID_2_);fill:#47A19D;}
	.st6{clip-path:url(#SVGID_2_);}
	.st7{clip-path:url(#SVGID_4_);}
	.st8{clip-path:url(#SVGID_8_);}
	.st9{clip-path:url(#SVGID_2_);fill:#6FC2B3;}
	.st10{clip-path:url(#SVGID_2_);fill-rule:evenodd;clip-rule:evenodd;fill:none;}
	.st11{clip-path:url(#SVGID_2_);fill:#2BB5B0;}
	.st12{clip-path:url(#SVGID_2_);fill:#14615E;}
	.st13{fill:#2BB5B0;}
	.st14{fill:#706F6F;}
</style>
<path class="st0" d="M22.1,1.3c-11.2,0-20.2,9.1-20.2,20.2s9.1,20.2,20.2,20.2s20.2-9.1,20.2-20.2S33.3,1.3,22.1,1.3z M22.1,38.8
	c-8.3,0-15.3-5.9-16.9-13.8c1.6,1.3,4.4,1.3,8.6-0.6c7.1-3.2,12.8-9.5,15.1-16.9l0.4-0.7c0-0.3,0.1-0.6,0.1-0.9
	c0.1,0.1,0.2,0.1,0.3,0.2l-0.4,0.8c-0.3,3.1,0.1,5.4,2.3,8.5c1.1,1.5,2.2,3.1,3.7,4.2c1.2,0.8,2.6,1.3,4,1.2c0,0.3,0,0.6,0,0.9
	C39.3,31.1,31.6,38.8,22.1,38.8z"/>
</svg>
