<?xml version="1.0" encoding="UTF-8"?>
<svg width="30px" height="30px" viewBox="0 0 30 30" version="1.1" xmlns="http://www.w3.org/2000/svg" xmlns:xlink="http://www.w3.org/1999/xlink">
    <!-- Generator: Sketch 47.1 (45422) - http://www.bohemiancoding.com/sketch -->
    <title>elementos/iconos/stats/</title>
    <desc>Created with Sketch.</desc>
    <defs></defs>
    <g id="Symbols" stroke="none" stroke-width="1" fill="none" fill-rule="evenodd">
        <g id="elementos/iconos/stats" fill-rule="nonzero" fill="#0076FF">
            <g id="AllIcons-07" transform="translate(2.000000, 3.000000)">
                <path d="M1.2,13.9404255 L3,14.4 L4.35,12.2042553 L1.75,11.5404255 C1.1,11.387234 0.45,11.7957447 0.3,12.4595745 C0.15,13.0723404 0.55,13.7361702 1.2,13.9404255 Z M24.85,14.2468085 L18.9,19.7106383 L11.9,14.1957447 C11.75,14.093617 11.6,13.9914894 11.45,13.9914894 L10.5,13.7361702 L9.15,15.9319149 L10.6,16.2893617 L18.2,22.2638298 C18.4,22.4170213 18.7,22.5191489 18.95,22.5191489 C19.25,22.5191489 19.55,22.4170213 19.75,22.212766 L26.45,16.0851064 C26.95,15.6255319 27,14.8595745 26.55,14.3489362 C26.1,13.8382979 25.35,13.8382979 24.85,14.2468085 Z M11.8,8.27234043 L18.3,12.5106383 C18.85,12.8680851 19.6,12.7148936 19.95,12.1531915 L26.65,2.29787234 C27,1.78723404 26.9,1.0212766 26.35,0.663829787 C25.8,0.255319149 25.05,0.408510638 24.65,0.970212766 L18.65,9.80425532 L12.1,5.51489362 C11.85,5.36170213 11.5,5.25957447 11.2,5.36170213 C10.9,5.41276596 10.6,5.61702128 10.45,5.92340426 L0.45,21.906383 C0.1,22.4680851 0.25,23.2340426 0.8,23.5914894 C1,23.7446809 1.2,23.7957447 1.45,23.7957447 C1.85,23.7957447 2.25,23.5914894 2.45,23.2340426 L11.8,8.27234043 Z" id="Shape"></path>
            </g>
        </g>
    </g>
</svg>